<mxfile host="65bd71144e" scale="3" border="0">
    <diagram id="LzTGRrPrDBO6Tm46XuKC" name="Page-1">
        <mxGraphModel dx="3034" dy="2339" grid="0" gridSize="10" guides="1" tooltips="1" connect="1" arrows="1" fold="1" page="0" pageScale="1" pageWidth="1600" pageHeight="1200" math="0" shadow="0">
            <root>
                <mxCell id="0"/>
                <mxCell id="1" parent="0"/>
                <mxCell id="270" style="edgeStyle=orthogonalEdgeStyle;html=1;exitX=0.5;exitY=1;exitDx=0;exitDy=0;entryX=0.5;entryY=0;entryDx=0;entryDy=0;" parent="1" edge="1">
                    <mxGeometry relative="1" as="geometry">
                        <Array as="points">
                            <mxPoint x="-2393" y="-107"/>
                            <mxPoint x="-2276" y="-107"/>
                            <mxPoint x="-2276" y="-551"/>
                            <mxPoint x="-2393" y="-551"/>
                        </Array>
                        <mxPoint x="-2392.5000000000005" y="-518" as="targetPoint"/>
                    </mxGeometry>
                </mxCell>
                <mxCell id="293" value="&amp;nbsp; AM243x" style="rounded=0;whiteSpace=wrap;html=1;align=left;verticalAlign=top;fontSize=15;fillColor=#ffe6cc;strokeColor=#d79b00;" parent="1" vertex="1">
                    <mxGeometry x="-1239" y="-919" width="262" height="285" as="geometry"/>
                </mxCell>
                <mxCell id="303" style="edgeStyle=none;html=1;exitX=1;exitY=0.5;exitDx=0;exitDy=0;exitPerimeter=0;fontSize=15;" parent="1" source="295" edge="1">
                    <mxGeometry relative="1" as="geometry">
                        <mxPoint x="-750.1904529389881" y="-822.1428571428571" as="targetPoint"/>
                    </mxGeometry>
                </mxCell>
                <mxCell id="295" value="" style="shape=or;whiteSpace=wrap;html=1;fontSize=15;fillColor=#d5e8d4;strokeColor=#82b366;" parent="1" vertex="1">
                    <mxGeometry x="-896" y="-866.5" width="82" height="88" as="geometry"/>
                </mxCell>
                <mxCell id="301" style="edgeStyle=orthogonalEdgeStyle;html=1;exitX=1;exitY=0.5;exitDx=0;exitDy=0;fontSize=15;" parent="1" source="296" target="295" edge="1">
                    <mxGeometry relative="1" as="geometry"/>
                </mxCell>
                <mxCell id="296" value="I/O" style="rounded=0;whiteSpace=wrap;html=1;fontSize=15;fillColor=#fff2cc;strokeColor=#d6b656;" parent="1" vertex="1">
                    <mxGeometry x="-1022" y="-846" width="45" height="47" as="geometry"/>
                </mxCell>
                <mxCell id="297" value="MCU_SAFETY_ERRORn" style="rounded=0;whiteSpace=wrap;html=1;fontSize=15;fillColor=#fff2cc;strokeColor=#d6b656;" parent="1" vertex="1">
                    <mxGeometry x="-1180" y="-774" width="203" height="47" as="geometry"/>
                </mxCell>
                <mxCell id="298" value="&amp;nbsp; Power Management Unit" style="rounded=0;whiteSpace=wrap;html=1;align=left;verticalAlign=top;fontSize=15;fillColor=#ffe6cc;strokeColor=#d79b00;" parent="1" vertex="1">
                    <mxGeometry x="-1239" y="-1058" width="258" height="89" as="geometry"/>
                </mxCell>
                <mxCell id="299" value="I/O" style="rounded=0;whiteSpace=wrap;html=1;fontSize=15;fillColor=#fff2cc;strokeColor=#d6b656;" parent="1" vertex="1">
                    <mxGeometry x="-1026" y="-1037" width="45" height="47" as="geometry"/>
                </mxCell>
                <mxCell id="300" style="edgeStyle=orthogonalEdgeStyle;html=1;exitX=1;exitY=0.5;exitDx=0;exitDy=0;entryX=0;entryY=0.25;entryDx=0;entryDy=0;entryPerimeter=0;fontSize=15;" parent="1" source="299" target="295" edge="1">
                    <mxGeometry relative="1" as="geometry"/>
                </mxCell>
                <mxCell id="302" style="edgeStyle=orthogonalEdgeStyle;html=1;exitX=1;exitY=0.5;exitDx=0;exitDy=0;entryX=0;entryY=0.75;entryDx=0;entryDy=0;entryPerimeter=0;fontSize=15;" parent="1" source="297" target="295" edge="1">
                    <mxGeometry relative="1" as="geometry"/>
                </mxCell>
                <mxCell id="304" style="edgeStyle=orthogonalEdgeStyle;html=1;exitX=0;exitY=0.5;exitDx=0;exitDy=0;entryX=-0.005;entryY=0.136;entryDx=0;entryDy=0;entryPerimeter=0;shape=flexArrow;" parent="1" source="298" target="293" edge="1">
                    <mxGeometry relative="1" as="geometry">
                        <Array as="points">
                            <mxPoint x="-1302" y="-1013"/>
                            <mxPoint x="-1302" y="-880"/>
                        </Array>
                    </mxGeometry>
                </mxCell>
                <mxCell id="305" value="Power" style="edgeLabel;html=1;align=center;verticalAlign=middle;resizable=0;points=[];fontSize=14;" parent="304" vertex="1" connectable="0">
                    <mxGeometry x="-0.0175" y="5" relative="1" as="geometry">
                        <mxPoint x="25" y="-82" as="offset"/>
                    </mxGeometry>
                </mxCell>
            </root>
        </mxGraphModel>
    </diagram>
</mxfile>